<svg width="110" height="54" viewBox="0 0 110 54" fill="none" xmlns="http://www.w3.org/2000/svg">
<g id="svgexport-1 (1) 1" clip-path="url(#clip0_2085_3262)">
<path id="Vector" d="M48.4672 8.11572C43.317 8.11572 39.4677 12.4185 39.4677 17.4838C39.4677 22.6037 43.2627 26.7975 48.4672 26.7975C53.6175 26.7975 57.4125 22.5492 57.4125 17.4838C57.4125 12.4185 53.6175 8.11572 48.4672 8.11572ZM49.66 25.7627C45.9734 25.7627 44.6722 16.8847 44.6722 14.2703C44.6722 12.9087 44.8349 9.20504 46.895 9.20504C50.8526 9.20504 52.0995 17.4838 52.0995 20.3706C52.0995 21.8955 51.8285 25.8172 49.6057 25.8172L49.66 25.7627Z" fill="#FD5C02"/>
<path id="Vector_2" d="M66.5212 8.11572H66.4671C61.2084 8.11572 58.064 12.6364 58.064 17.5927C58.064 22.7126 61.7505 26.7975 66.955 26.7975C70.4789 26.7975 73.1354 25.218 74.8702 22.1134L74.5449 21.8955C73.7859 22.658 71.4547 22.9304 70.4246 22.9304C65.6539 22.9304 63.5395 18.5188 63.5395 14.3248C63.5395 12.8543 63.9732 9.04165 66.0876 9.04165H66.1417L66.196 8.93272L66.3586 8.44252V8.38806L66.4671 8.17019L66.5212 8.11572Z" fill="#FD5C02"/>
<path id="Vector_3" d="M67.929 16.2854C69.8265 18.6818 74.2179 18.1917 74.2179 14.4879C74.2179 11.4924 71.9951 9.47713 69.3927 8.60568L69.2844 8.76908C69.176 8.98693 69.0675 9.15034 68.9591 9.3682C68.8506 9.58606 68.7965 9.80393 68.688 9.96732L68.5796 10.2941C69.0675 10.8932 69.3927 11.6013 69.3927 12.3638C69.3927 16.3399 65.8147 12.5817 68.5796 8.06102C69.5555 6.42705 71.1819 4.7386 72.8082 3.92162C75.7357 2.5055 78.0127 5.17433 76.0611 6.80831C79.097 9.80393 83.0546 6.15471 81.3199 3.05016C80.1814 1.03493 76.8742 -0.217786 72.3204 2.45104C70.1517 3.70375 68.5796 5.55559 67.5495 7.62529C66.2484 10.2941 65.7605 13.8344 67.8749 16.2309L67.929 16.2854Z" fill="#FD5C02"/>
<path id="Vector_4" d="M82.1348 26.579V8.55078C79.153 10.2937 78.0688 10.7294 74.6534 11.3285C76.1171 12.4179 76.7135 13.3982 76.7135 15.5225V29.738L82.1348 26.579Z" fill="#FD5C02"/>
<path id="Vector_5" d="M83.9765 52.178C82.296 51.2521 82.1332 48.8011 82.1332 47.1127V28.2676L76.7119 31.4266V47.1127C76.7119 48.8011 76.4409 51.2521 74.8145 52.178H83.9765Z" fill="#FC52E4"/>
<path id="Vector_6" d="M100.188 24.8904C99.9706 25.0539 99.6996 25.1083 99.4285 25.1083C98.3985 25.1083 98.29 23.5288 98.29 22.8208V14.2696C98.29 10.2936 95.3625 8.16943 91.5675 8.16943C88.4774 8.16943 84.3571 9.64002 84.3571 13.3437C84.3571 14.8142 85.2245 16.1759 86.7425 16.1759C88.8026 16.1759 90.158 14.4875 90.7001 12.6901C89.8327 12.6901 89.2364 12.2544 89.2364 11.3285C89.2364 10.3481 89.9954 9.04089 91.0796 9.04089C93.0313 9.04089 92.8145 12.3088 92.8145 13.5616V14.7599C90.429 17.3742 83.6524 18.9536 83.6524 22.8208C83.6524 25.5985 85.4956 26.7967 88.0979 26.7967C90.2123 26.7967 91.8386 26.0342 92.9771 24.727C93.5192 25.9798 95.0372 26.7967 96.3925 26.7967C98.0731 26.7967 98.8321 26.1976 100.079 25.2716V24.8904H100.188ZM92.8686 23.9645C92.4891 24.1824 92.0013 24.3457 91.4049 24.3457C89.5074 24.3457 89.1279 22.7118 89.1279 21.1324C89.1279 18.9536 91.4049 17.3742 92.8145 16.067V23.9645H92.8686Z" fill="#FD5C02"/>
<path id="Vector_7" d="M107.289 0C104.307 1.74291 103.223 2.17864 99.8071 2.77776C101.325 3.32242 101.867 4.84745 101.867 6.97163V21.3506C101.867 23.039 101.596 25.49 99.9697 26.4159H109.186C107.505 25.49 107.289 23.039 107.289 21.3506V0Z" fill="#FD5C02"/>
<path id="Vector_8" d="M40.0094 47.1128C40.0094 48.8011 39.7382 51.2521 38.1119 52.178H47.274C45.5934 51.2521 45.4308 48.8011 45.4308 47.1128V39.9777C45.4308 38.4527 46.4065 36.6552 48.0871 36.6552C49.9305 36.6552 50.4184 38.4527 50.4184 39.9777V47.1128C50.4184 48.8011 50.1473 51.2521 48.5751 52.178H57.7373C56.1108 51.2521 55.8398 48.8011 55.8398 47.1128V39.8142C55.8398 37.4178 54.8639 35.1847 52.9123 34.3133C50.4184 33.1695 46.4608 34.6945 45.4308 37.1999V27.1782C43.0453 28.5399 40.6599 29.4658 37.9492 29.956C39.3587 30.7185 40.0094 31.6989 40.0094 33.823V47.1671V47.1128Z" fill="#FC52E4"/>
<path id="Vector_9" d="M74.814 50.6532C74.5971 50.8165 74.326 50.871 74.055 50.871C73.0249 50.871 72.9165 49.2915 72.9165 48.5835V40.0324C72.9165 36.0563 69.989 33.9321 66.194 33.9321C63.1039 33.9321 58.9836 35.4027 58.9836 39.1065C58.9836 40.577 59.851 41.9386 61.369 41.9386C63.4291 41.9386 64.7845 40.2501 65.3266 38.4528C64.4591 38.4528 63.8629 38.017 63.8629 37.0911C63.8629 36.1108 64.6217 34.8037 65.7061 34.8037C67.6577 34.8037 67.4409 38.0715 67.4409 39.3242V40.5225C65.0555 43.1369 58.2787 44.7164 58.2787 48.5835C58.2787 51.3612 60.1221 52.5595 62.7244 52.5595C64.8386 52.5595 66.4651 51.797 67.6035 50.4898C68.1457 51.7425 69.6636 52.5595 71.019 52.5595C72.6996 52.5595 73.4586 51.9603 74.7055 51.0344V50.6532H74.814ZM67.4951 49.7273C67.1156 49.9451 66.6277 50.1085 66.0314 50.1085C64.1339 50.1085 63.7544 48.4746 63.7544 46.895C63.7544 44.7164 66.0314 43.1369 67.4409 41.8297V49.7273H67.4951Z" fill="#FC52E4"/>
<path id="Vector_10" d="M82.0801 43.0282L87.122 52.2328H95.254C91.2421 49.9997 87.4473 42.1566 85.2245 38.0717C85.6581 37.6905 86.2004 37.4726 86.7966 37.4726C87.5556 37.4726 88.4231 37.9083 88.4231 38.8343C88.4231 39.27 88.2604 39.5968 88.0436 39.9781C88.2604 40.6861 89.1821 41.0128 89.8869 41.0128C91.947 41.0128 93.5734 39.3789 93.5734 37.3092C93.5734 35.1306 91.947 33.9868 89.8869 33.9868C86.7425 33.9868 83.4354 38.5075 82.0801 41.2307V43.0826V43.0282Z" fill="#FC52E4"/>
<path id="Vector_11" d="M109.892 42.5919V41.7205C109.892 36.9274 106.802 33.8774 102.031 33.8774C96.7724 33.8774 93.6279 38.398 93.6279 43.3544C93.6279 48.4743 97.3145 52.5592 102.519 52.5592C106.205 52.5592 108.266 50.9796 110 47.8751L109.729 47.6572C108.97 48.4198 106.639 48.6922 105.609 48.6922C102.031 48.6922 100.025 46.1322 99.3204 43.0821L109.946 42.6464L109.892 42.5919ZM104.904 38.7249C104.904 40.5767 103.657 41.4481 102.031 41.7205C101.055 41.8839 100.079 41.9928 99.0492 42.1561C98.9951 41.6115 98.9409 41.0125 98.9409 40.4677C98.9409 38.9428 99.483 34.8034 101.651 34.8034C103.549 34.8034 104.904 37.0364 104.904 38.7793V38.7249Z" fill="#FC52E4"/>
<path id="Vector_12" d="M23.4755 18.5724C24.5055 24.6726 32.5291 26.0343 35.3483 21.2412C38.3843 16.067 34.1014 10.9472 29.3306 9.20433C25.8066 7.89716 21.578 7.62482 18.3253 7.78823C27.2163 7.67928 29.3306 16.6662 23.4213 18.6269L23.4755 18.5724Z" fill="#FD5C02"/>
<path id="Vector_13" d="M37.8405 40.3595C38.491 27.2877 24.9376 27.3967 15.9924 21.8957C12.36 19.6626 9.92042 15.7954 12.089 11.6016C13.0649 9.69529 14.9081 8.17026 17.0766 7.73453C12.089 7.4622 7.96872 8.49704 5.14962 10.3489C-0.597029 14.1615 -0.109106 20.4795 5.96282 23.9654C15.9924 29.7387 34.2081 28.377 37.7862 40.3595H37.8405Z" fill="#FD5C02"/>
<path id="Vector_14" d="M20.3849 53.0498C24.3424 52.6685 28.6795 51.6337 31.9865 49.5095C39.197 44.8799 35.5646 37.0914 29.0047 33.9323C25.752 32.3528 21.6317 31.3179 17.5657 30.2831C11.4938 28.7581 1.62689 26.6883 0.054691 20.0435C-0.650086 28.1044 5.58449 30.0652 11.3853 33.0063C14.7466 34.7493 18.65 36.4377 20.0595 38.1262C28.0831 29.9564 38.3295 43.0826 20.3849 52.9954V53.0498Z" fill="#FC52E4"/>
<path id="Vector_15" d="M19.8432 53.1039C9.32584 47.3306 8.40421 40.4679 11.0607 37.3089C3.85026 30.2283 -3.03488 39.9233 1.84436 46.6771C5.42246 51.6334 14.2051 53.4852 19.8975 53.0494L19.8432 53.1039Z" fill="#FC52E4"/>
</g>
<defs>
<clipPath id="clip0_2085_3262">
<rect width="110" height="54" fill="white"/>
</clipPath>
</defs>
</svg>
