<svg width="47" height="47" viewBox="0 0 47 47" fill="none" xmlns="http://www.w3.org/2000/svg">
<rect x="1.5" y="1.5" width="44" height="44" rx="22" fill="url(#paint0_linear_119_5550)"/>
<rect x="1.5" y="1.5" width="44" height="44" rx="22" stroke="#CF9C69" stroke-width="3"/>
<path d="M34.3652 27.6328C34.3652 29.1048 34.1273 30.3831 33.6514 31.4678C33.1865 32.5413 32.5335 33.4378 31.6924 34.1572C30.8512 34.8656 29.8441 35.3968 28.6709 35.751C27.5088 36.0941 26.2305 36.2656 24.8359 36.2656C24.2051 36.2656 23.5576 36.2048 22.8936 36.083C22.2295 35.9613 21.571 35.7952 20.918 35.585C20.265 35.3747 19.6286 35.1257 19.0088 34.8379C18.4001 34.5501 17.8301 34.2402 17.2988 33.9082L17.9297 27.2344C18.3503 27.5221 18.8206 27.7988 19.3408 28.0645C19.861 28.319 20.3978 28.5514 20.9512 28.7617C21.5156 28.9609 22.0801 29.1214 22.6445 29.2432C23.2201 29.3649 23.7734 29.4258 24.3047 29.4258C24.6146 29.4258 24.93 29.4036 25.251 29.3594C25.583 29.304 25.8818 29.21 26.1475 29.0771C26.4131 28.9443 26.6289 28.7562 26.7949 28.5127C26.972 28.2692 27.0605 27.9538 27.0605 27.5664C27.0605 27.3229 26.9499 27.096 26.7285 26.8857C26.5072 26.6755 26.2415 26.4984 25.9316 26.3545C25.6217 26.1995 25.3008 26.0833 24.9688 26.0059C24.6367 25.9173 24.36 25.873 24.1387 25.873C23.9837 25.873 23.7956 25.8841 23.5742 25.9062C23.3639 25.9173 23.1481 25.9395 22.9268 25.9727C22.7054 26.0059 22.4896 26.0557 22.2793 26.1221C22.0801 26.1774 21.9251 26.2493 21.8145 26.3379L21.9141 21.5898C22.1022 21.612 22.2793 21.6286 22.4453 21.6396C22.6113 21.6507 22.7884 21.6562 22.9766 21.6562C23.3639 21.6562 23.7845 21.623 24.2383 21.5566C24.6921 21.4792 25.1126 21.3519 25.5 21.1748C25.8874 20.9867 26.2083 20.7321 26.4629 20.4111C26.7285 20.0902 26.8613 19.6751 26.8613 19.166C26.8613 18.8008 26.7617 18.5075 26.5625 18.2861C26.3633 18.0537 26.1143 17.8766 25.8154 17.7549C25.5277 17.6331 25.2122 17.5501 24.8691 17.5059C24.526 17.4616 24.2161 17.4395 23.9395 17.4395C23.043 17.4395 22.1576 17.5944 21.2832 17.9043C20.4199 18.2142 19.6562 18.668 18.9922 19.2656L17.5977 13.2227C18.6159 12.3926 19.7725 11.7617 21.0674 11.3301C22.3734 10.8874 23.6849 10.666 25.002 10.666C26.2083 10.666 27.3594 10.8431 28.4551 11.1973C29.5618 11.5404 30.5358 12.055 31.377 12.7412C32.2181 13.4163 32.8877 14.252 33.3857 15.248C33.8838 16.2441 34.1328 17.3952 34.1328 18.7012C34.1328 19.0775 34.0775 19.4593 33.9668 19.8467C33.8561 20.234 33.7067 20.6104 33.5186 20.9756C33.3304 21.3408 33.109 21.6839 32.8545 22.0049C32.5999 22.3148 32.3288 22.5859 32.041 22.8184C32.5059 23.0286 32.8877 23.3109 33.1865 23.665C33.4854 24.0192 33.7233 24.4121 33.9004 24.8438C34.0775 25.2754 34.1992 25.7347 34.2656 26.2217C34.332 26.6976 34.3652 27.168 34.3652 27.6328Z" fill="#CF9C69"/>
<defs>
<linearGradient id="paint0_linear_119_5550" x1="9.17969" y1="10.1895" x2="36.4434" y2="38.8301" gradientUnits="userSpaceOnUse">
<stop offset="0.395" stop-color="#F1C08F"/>
<stop offset="0.6" stop-color="#DEB182"/>
</linearGradient>
</defs>
</svg>
