<svg width="99" height="99" viewBox="0 0 99 99" fill="none" xmlns="http://www.w3.org/2000/svg">
<rect x="6" y="6" width="87" height="87" rx="43.5" fill="#FFD9C3"/>
<rect x="6" y="6" width="87" height="87" rx="43.5" stroke="#FFE7D9" stroke-width="12"/>
<path d="M41.8125 64.4991C45.3911 66.3348 49.5077 66.8321 53.4204 65.9012C57.3332 64.9703 60.7848 62.6725 63.1533 59.4219C65.5218 56.1713 66.6514 52.1817 66.3386 48.1719C66.0258 44.1621 64.2911 40.3959 61.4471 37.552C58.6032 34.708 54.837 32.9733 50.8272 32.6605C46.8174 32.3477 42.8278 33.4773 39.5772 35.8458C36.3266 38.2143 34.0288 41.6659 33.0979 45.5787C32.167 49.4914 32.6643 53.608 34.5 57.1866L30.75 68.2491L41.8125 64.4991Z" stroke="#FD5C02" stroke-width="3" stroke-linecap="round" stroke-linejoin="round"/>
</svg>
