<svg width="24" height="25" viewBox="0 0 24 25" fill="none" xmlns="http://www.w3.org/2000/svg">
<g id="Project Iocns">
<path id="Vector" d="M16 21.5V19.5C16 18.4391 15.5786 17.4217 14.8284 16.6716C14.0783 15.9214 13.0609 15.5 12 15.5H6C4.93913 15.5 3.92172 15.9214 3.17157 16.6716C2.42143 17.4217 2 18.4391 2 19.5V21.5" stroke="white" stroke-width="2" stroke-linecap="round" stroke-linejoin="round"/>
<path id="Vector_2" d="M9 11.5C11.2091 11.5 13 9.70914 13 7.5C13 5.29086 11.2091 3.5 9 3.5C6.79086 3.5 5 5.29086 5 7.5C5 9.70914 6.79086 11.5 9 11.5Z" stroke="white" stroke-width="2" stroke-linecap="round" stroke-linejoin="round"/>
<path id="Vector_3" d="M22 21.5V19.5C21.9993 18.6137 21.7044 17.7528 21.1614 17.0523C20.6184 16.3519 19.8581 15.8516 19 15.63" stroke="white" stroke-width="2" stroke-linecap="round" stroke-linejoin="round"/>
<path id="Vector_4" d="M16 3.63C16.8604 3.85031 17.623 4.35071 18.1676 5.05232C18.7122 5.75392 19.0078 6.61683 19.0078 7.505C19.0078 8.39318 18.7122 9.25608 18.1676 9.95769C17.623 10.6593 16.8604 11.1597 16 11.38" stroke="white" stroke-width="2" stroke-linecap="round" stroke-linejoin="round"/>
</g>
</svg>
