<svg width="20" height="20" viewBox="0 0 20 20" fill="none" xmlns="http://www.w3.org/2000/svg">
<path d="M13.334 8.33398H15.0007" stroke="#667085" stroke-width="2" stroke-linecap="round" stroke-linejoin="round"/>
<path d="M13.334 11.666H15.0007" stroke="#667085" stroke-width="2" stroke-linecap="round" stroke-linejoin="round"/>
<path d="M5.14258 12.5005C5.31436 12.0121 5.6335 11.5892 6.05593 11.29C6.47836 10.9908 6.98325 10.8301 7.50091 10.8301C8.01857 10.8301 8.52346 10.9908 8.9459 11.29C9.36833 11.5892 9.68746 12.0121 9.85924 12.5005" stroke="#667085" stroke-width="2" stroke-linecap="round" stroke-linejoin="round"/>
<path d="M7.50065 10.8333C8.42113 10.8333 9.16732 10.0871 9.16732 9.16667C9.16732 8.24619 8.42113 7.5 7.50065 7.5C6.58018 7.5 5.83398 8.24619 5.83398 9.16667C5.83398 10.0871 6.58018 10.8333 7.50065 10.8333Z" stroke="#667085" stroke-width="2" stroke-linecap="round" stroke-linejoin="round"/>
<path d="M16.666 4.16602H3.33268C2.41221 4.16602 1.66602 4.91221 1.66602 5.83268V14.166C1.66602 15.0865 2.41221 15.8327 3.33268 15.8327H16.666C17.5865 15.8327 18.3327 15.0865 18.3327 14.166V5.83268C18.3327 4.91221 17.5865 4.16602 16.666 4.16602Z" stroke="#667085" stroke-width="2" stroke-linecap="round" stroke-linejoin="round"/>
</svg>
