<svg width="17" height="16" viewBox="0 0 17 16" fill="none" xmlns="http://www.w3.org/2000/svg">
<g clip-path="url(#clip0_417_8443)">
<path d="M10.5242 14.4572C10.5495 14.5203 10.5936 14.5742 10.6504 14.6116C10.7072 14.6489 10.7741 14.668 10.8421 14.6663C10.9101 14.6646 10.9759 14.6421 11.0307 14.6018C11.0856 14.5616 11.1268 14.5055 11.1489 14.4412L15.4822 1.77454C15.5035 1.71547 15.5076 1.65154 15.4939 1.59024C15.4803 1.52894 15.4494 1.4728 15.405 1.42839C15.3606 1.38398 15.3045 1.35314 15.2432 1.33947C15.1819 1.3258 15.1179 1.32987 15.0589 1.35121L2.3922 5.68454C2.32786 5.7066 2.27181 5.74782 2.23158 5.80266C2.19134 5.85749 2.16884 5.92332 2.1671 5.99131C2.16536 6.05931 2.18446 6.1262 2.22183 6.18303C2.25921 6.23985 2.31307 6.28388 2.3762 6.30921L7.66286 8.42921C7.82999 8.49612 7.98183 8.59618 8.10924 8.72336C8.23665 8.85054 8.33698 9.0022 8.4042 9.16921L10.5242 14.4572Z" stroke="black" stroke-width="1.5" stroke-linecap="round" stroke-linejoin="round"/>
<path d="M15.4027 1.43115L8.10938 8.72382" stroke="black" stroke-width="1.5" stroke-linecap="round" stroke-linejoin="round"/>
</g>
<defs>
<clipPath id="clip0_417_8443">
<rect width="16" height="16" fill="white" transform="translate(0.833496)"/>
</clipPath>
</defs>
</svg>
