<svg width="14" height="15" viewBox="0 0 14 15" fill="none" xmlns="http://www.w3.org/2000/svg">
<path d="M8.48052 13.149C8.50268 13.2043 8.54121 13.2514 8.59093 13.2841C8.64065 13.3168 8.69919 13.3335 8.75868 13.332C8.81817 13.3305 8.87577 13.3108 8.92376 13.2756C8.97174 13.2404 9.0078 13.1913 9.0271 13.135L12.8188 2.05169C12.8374 2 12.841 1.94406 12.829 1.89043C12.8171 1.83679 12.7901 1.78767 12.7512 1.74881C12.7124 1.70995 12.6633 1.68296 12.6096 1.671C12.556 1.65904 12.5 1.6626 12.4484 1.68127L1.36502 5.47294C1.30873 5.49224 1.25969 5.5283 1.22448 5.57629C1.18927 5.62427 1.16959 5.68187 1.16806 5.74136C1.16654 5.80085 1.18325 5.85939 1.21596 5.90911C1.24866 5.95883 1.29579 5.99736 1.35102 6.01952L5.97686 7.87452C6.12309 7.93307 6.25595 8.02062 6.36744 8.1319C6.47892 8.24319 6.56671 8.37589 6.62552 8.52202L8.48052 13.149Z" stroke="white" stroke-linecap="round" stroke-linejoin="round"/>
<path d="M12.7489 1.75391L6.36719 8.13499" stroke="white" stroke-linecap="round" stroke-linejoin="round"/>
</svg>
