<svg width="24" height="25" viewBox="0 0 24 25" fill="none" xmlns="http://www.w3.org/2000/svg">
<path d="M12 22.5C17.5228 22.5 22 18.0228 22 12.5C22 6.97715 17.5228 2.5 12 2.5C6.47715 2.5 2 6.97715 2 12.5C2 18.0228 6.47715 22.5 12 22.5Z" stroke="black" stroke-width="2" stroke-linecap="round" stroke-linejoin="round"/>
<path d="M16 8.5H10C9.46957 8.5 8.96086 8.71071 8.58579 9.08579C8.21071 9.46086 8 9.96957 8 10.5C8 11.0304 8.21071 11.5391 8.58579 11.9142C8.96086 12.2893 9.46957 12.5 10 12.5H14C14.5304 12.5 15.0391 12.7107 15.4142 13.0858C15.7893 13.4609 16 13.9696 16 14.5C16 15.0304 15.7893 15.5391 15.4142 15.9142C15.0391 16.2893 14.5304 16.5 14 16.5H8" stroke="black" stroke-width="2" stroke-linecap="round" stroke-linejoin="round"/>
<path d="M12 18.5V6.5" stroke="black" stroke-width="2" stroke-linecap="round" stroke-linejoin="round"/>
</svg>
