<svg width="25" height="30" viewBox="0 0 25 30" fill="none" xmlns="http://www.w3.org/2000/svg">
<path d="M22.5551 7.74613C22.9093 5.43698 22.5551 3.89754 21.3154 2.47651C19.9578 0.877868 17.4787 0.226562 14.2911 0.226562H5.14186C4.49256 0.226562 3.96131 0.700232 3.84325 1.35154L0.00643521 25.6273C-0.0525875 26.101 0.301583 26.5155 0.773798 26.5155H6.44045L6.02727 29.0022C5.96829 29.4168 6.26341 29.772 6.73556 29.772H11.5169C12.1071 29.772 12.5794 29.3576 12.6384 28.8246L13.6419 22.5485C13.7009 22.0155 14.2321 21.6011 14.7634 21.6011H15.4717C20.0759 21.6011 23.7357 19.7064 24.7982 14.2592C25.2113 12.0092 25.0343 10.0553 23.8537 8.75269C23.4995 8.33826 23.0863 8.04219 22.5551 7.74613Z" fill="#009CDE"/>
<path d="M22.5551 7.74613C22.9093 5.43698 22.5551 3.89754 21.3154 2.47651C19.9578 0.877868 17.4787 0.226562 14.2911 0.226562H5.14186C4.49256 0.226562 3.96131 0.700232 3.84325 1.35154L0.00643521 25.6273C-0.0525875 26.101 0.301583 26.5155 0.773798 26.5155H6.44045L7.79806 17.7525C7.91613 17.1012 8.44738 16.6276 9.0967 16.6276H11.812C17.1245 16.6276 21.2565 14.496 22.437 8.21985C22.496 8.10139 22.496 7.92377 22.5551 7.74613Z" fill="#012169"/>
<path d="M9.39181 7.80535C9.4509 7.39088 9.98215 6.858 10.5134 6.858H17.7148C18.5412 6.858 19.3676 6.9172 20.0759 7.03562C20.7252 7.15404 21.9058 7.45009 22.496 7.80535C22.8502 5.49618 22.496 3.95675 21.2565 2.53572C19.9578 0.877869 17.4787 0.226562 14.2911 0.226562H5.14186C4.49256 0.226562 3.96131 0.700232 3.84325 1.35154L0.00643521 25.6273C-0.0525875 26.101 0.301583 26.5155 0.773798 26.5155H6.44045L9.39181 7.80535Z" fill="#003087"/>
</svg>
