<svg width="57" height="56" viewBox="0 0 57 56" fill="none" xmlns="http://www.w3.org/2000/svg">
<rect x="4.33203" y="4" width="48" height="48" rx="24" fill="#FFD9C3"/>
<rect x="4.33203" y="4" width="48" height="48" rx="24" stroke="#FFF4EE" stroke-width="8"/>
<path d="M28 38C33.5228 38 38 33.5228 38 28C38 22.4772 33.5228 18 28 18C22.4772 18 18 22.4772 18 28C18 33.5228 22.4772 38 28 38Z" stroke="#FD5C02" stroke-width="2" stroke-linecap="round" stroke-linejoin="round"/>
<path d="M32 24H26C25.4696 24 24.9609 24.2107 24.5858 24.5858C24.2107 24.9609 24 25.4696 24 26C24 26.5304 24.2107 27.0391 24.5858 27.4142C24.9609 27.7893 25.4696 28 26 28H30C30.5304 28 31.0391 28.2107 31.4142 28.5858C31.7893 28.9609 32 29.4696 32 30C32 30.5304 31.7893 31.0391 31.4142 31.4142C31.0391 31.7893 30.5304 32 30 32H24" stroke="#FD5C02" stroke-width="2" stroke-linecap="round" stroke-linejoin="round"/>
<path d="M28 34V22" stroke="#FD5C02" stroke-width="2" stroke-linecap="round" stroke-linejoin="round"/>
</svg>
