<svg width="57" height="56" viewBox="0 0 57 56" fill="none" xmlns="http://www.w3.org/2000/svg">
<rect x="4.5" y="4" width="48" height="48" rx="24" fill="#067647" fill-opacity="0.12"/>
<rect x="4.5" y="4" width="48" height="48" rx="24" stroke="#067647" stroke-opacity="0.06" stroke-width="8"/>
<path d="M28 31H30C30.5304 31 31.0391 30.7893 31.4142 30.4142C31.7893 30.0391 32 29.5304 32 29C32 28.4696 31.7893 27.9609 31.4142 27.5858C31.0391 27.2107 30.5304 27 30 27H27C26.4 27 25.9 27.2 25.6 27.6L20 33" stroke="#067647" stroke-width="2" stroke-linecap="round" stroke-linejoin="round"/>
<path d="M24 37.0003L25.6 35.6003C25.9 35.2003 26.4 35.0003 27 35.0003H31C32.1 35.0003 33.1 34.6003 33.8 33.8003L38.4 29.4003C38.7859 29.0356 39.0111 28.5326 39.0261 28.0018C39.0411 27.4711 38.8447 26.9562 38.48 26.5703C38.1153 26.1844 37.6123 25.9592 37.0816 25.9442C36.5508 25.9292 36.0359 26.1256 35.65 26.4903L31.45 30.3903" stroke="#067647" stroke-width="2" stroke-linecap="round" stroke-linejoin="round"/>
<path d="M19 32L25 38" stroke="#067647" stroke-width="2" stroke-linecap="round" stroke-linejoin="round"/>
<path d="M33.0016 27.8996C34.6032 27.8996 35.9016 26.6012 35.9016 24.9996C35.9016 23.398 34.6032 22.0996 33.0016 22.0996C31.3999 22.0996 30.1016 23.398 30.1016 24.9996C30.1016 26.6012 31.3999 27.8996 33.0016 27.8996Z" stroke="#067647" stroke-width="2" stroke-linecap="round" stroke-linejoin="round"/>
<path d="M23 24C24.6569 24 26 22.6569 26 21C26 19.3431 24.6569 18 23 18C21.3431 18 20 19.3431 20 21C20 22.6569 21.3431 24 23 24Z" stroke="#067647" stroke-width="2" stroke-linecap="round" stroke-linejoin="round"/>
</svg>
