<svg width="57" height="56" viewBox="0 0 57 56" fill="none" xmlns="http://www.w3.org/2000/svg">
<rect x="4.66797" y="4" width="48" height="48" rx="24" fill="#FFC8F1"/>
<rect x="4.66797" y="4" width="48" height="48" rx="24" stroke="#FFE5FB" stroke-width="8"/>
<path d="M20.8492 24.6191C20.7033 23.9616 20.7257 23.278 20.9144 22.6315C21.1031 21.985 21.452 21.3966 21.9287 20.9208C22.4054 20.4451 22.9945 20.0975 23.6414 19.9101C24.2883 19.7228 24.972 19.7018 25.6292 19.8491C25.9909 19.2834 26.4892 18.8179 27.0782 18.4954C27.6671 18.1729 28.3278 18.0039 28.9992 18.0039C29.6707 18.0039 30.3313 18.1729 30.9203 18.4954C31.5092 18.8179 32.0075 19.2834 32.3692 19.8491C33.0274 19.7011 33.7123 19.722 34.3602 19.9098C35.0081 20.0976 35.598 20.4463 36.0751 20.9233C36.5521 21.4003 36.9007 21.9902 37.0885 22.6381C37.2763 23.2861 37.2972 23.971 37.1492 24.6291C37.7149 24.9908 38.1805 25.4891 38.5029 26.0781C38.8254 26.667 38.9944 27.3277 38.9944 27.9991C38.9944 28.6706 38.8254 29.3312 38.5029 29.9202C38.1805 30.5091 37.7149 31.0074 37.1492 31.3691C37.2966 32.0263 37.2756 32.71 37.0882 33.3569C36.9009 34.0038 36.5532 34.5929 36.0775 35.0697C35.6018 35.5464 35.0134 35.8953 34.3669 36.084C33.7204 36.2727 33.0367 36.2951 32.3792 36.1491C32.018 36.717 31.5193 37.1845 30.9293 37.5084C30.3394 37.8324 29.6772 38.0022 29.0042 38.0022C28.3312 38.0022 27.669 37.8324 27.0791 37.5084C26.4891 37.1845 25.9905 36.717 25.6292 36.1491C24.972 36.2965 24.2883 36.2755 23.6414 36.0881C22.9945 35.9008 22.4054 35.5531 21.9287 35.0774C21.452 34.6017 21.1031 34.0133 20.9144 33.3668C20.7257 32.7203 20.7033 32.0366 20.8492 31.3791C20.2792 31.0184 19.8096 30.5193 19.4843 29.9283C19.1589 29.3374 18.9883 28.6737 18.9883 27.9991C18.9883 27.3245 19.1589 26.6609 19.4843 26.0699C19.8096 25.4789 20.2792 24.9799 20.8492 24.6191Z" stroke="#FC52E4" stroke-width="2" stroke-linecap="round" stroke-linejoin="round"/>
<path d="M26 28L28 30L32 26" stroke="#FC52E4" stroke-width="2" stroke-linecap="round" stroke-linejoin="round"/>
</svg>
