<svg width="24" height="25" viewBox="0 0 24 25" fill="none" xmlns="http://www.w3.org/2000/svg">
<g id="Project Iocns">
<path id="Vector" d="M6 14.5L7.45 11.6C7.61696 11.2687 7.87281 10.9903 8.18893 10.796C8.50504 10.6018 8.86897 10.4993 9.24 10.5H20M20 10.5C20.3055 10.4995 20.6071 10.5689 20.8816 10.7031C21.1561 10.8372 21.3963 11.0325 21.5836 11.2739C21.7709 11.5152 21.9004 11.7963 21.9622 12.0956C22.024 12.3948 22.0164 12.7042 21.94 13L20.39 19C20.279 19.4299 20.0281 19.8106 19.6769 20.0822C19.3256 20.3538 18.894 20.5008 18.45 20.5H4C3.46957 20.5 2.96086 20.2893 2.58579 19.9142C2.21071 19.5391 2 19.0304 2 18.5V5.5C2 4.4 2.9 3.5 4 3.5H7.93C8.25941 3.5017 8.58331 3.58475 8.8729 3.74176C9.1625 3.89877 9.40882 4.12488 9.59 4.4L10.41 5.6C10.5912 5.87512 10.8375 6.10123 11.1271 6.25824C11.4167 6.41525 11.7406 6.4983 12.07 6.5H18C18.5304 6.5 19.0391 6.71071 19.4142 7.08579C19.7893 7.46086 20 7.96957 20 8.5V10.5Z" stroke="white" stroke-width="2" stroke-linecap="round" stroke-linejoin="round"/>
<path id="Vector_2" d="M14 16.5C14.5523 16.5 15 16.0523 15 15.5C15 14.9477 14.5523 14.5 14 14.5C13.4477 14.5 13 14.9477 13 15.5C13 16.0523 13.4477 16.5 14 16.5Z" stroke="white" stroke-width="2" stroke-linecap="round" stroke-linejoin="round"/>
</g>
</svg>
