<svg width="24" height="25" viewBox="0 0 24 25" fill="none" xmlns="http://www.w3.org/2000/svg">
<path d="M8 22.5C8.55228 22.5 9 22.0523 9 21.5C9 20.9477 8.55228 20.5 8 20.5C7.44772 20.5 7 20.9477 7 21.5C7 22.0523 7.44772 22.5 8 22.5Z" stroke="black" stroke-width="2" stroke-linecap="round" stroke-linejoin="round"/>
<path d="M19 22.5C19.5523 22.5 20 22.0523 20 21.5C20 20.9477 19.5523 20.5 19 20.5C18.4477 20.5 18 20.9477 18 21.5C18 22.0523 18.4477 22.5 19 22.5Z" stroke="black" stroke-width="2" stroke-linecap="round" stroke-linejoin="round"/>
<path d="M2.05078 2.55078H4.05078L6.71078 14.9708C6.80836 15.4256 7.06145 15.8323 7.42649 16.1206C7.79153 16.409 8.24569 16.5611 8.71078 16.5508H18.4908C18.946 16.55 19.3873 16.3941 19.7418 16.1086C20.0964 15.8232 20.3429 15.4253 20.4408 14.9808L22.0908 7.55078H5.12078" stroke="black" stroke-width="2" stroke-linecap="round" stroke-linejoin="round"/>
</svg>
