<svg width="57" height="56" viewBox="0 0 57 56" fill="none" xmlns="http://www.w3.org/2000/svg">
<rect x="4.75" y="4" width="48" height="48" rx="24" fill="#FFD9C3"/>
<rect x="4.75" y="4" width="48" height="48" rx="24" stroke="#FFF4EE" stroke-width="8"/>
<path d="M25 38C25.5523 38 26 37.5523 26 37C26 36.4477 25.5523 36 25 36C24.4477 36 24 36.4477 24 37C24 37.5523 24.4477 38 25 38Z" stroke="#FD5C02" stroke-width="2" stroke-linecap="round" stroke-linejoin="round"/>
<path d="M36 38C36.5523 38 37 37.5523 37 37C37 36.4477 36.5523 36 36 36C35.4477 36 35 36.4477 35 37C35 37.5523 35.4477 38 36 38Z" stroke="#FD5C02" stroke-width="2" stroke-linecap="round" stroke-linejoin="round"/>
<path d="M19.0508 18.0508H21.0508L23.7108 30.4708C23.8084 30.9256 24.0615 31.3323 24.4265 31.6206C24.7915 31.909 25.2457 32.0611 25.7108 32.0508H35.4908C35.946 32.05 36.3873 31.8941 36.7418 31.6086C37.0964 31.3232 37.3429 30.9253 37.4408 30.4808L39.0908 23.0508H22.1208" stroke="#FD5C02" stroke-width="2" stroke-linecap="round" stroke-linejoin="round"/>
</svg>
