<svg width="47" height="47" viewBox="0 0 47 47" fill="none" xmlns="http://www.w3.org/2000/svg">
<rect x="1.5" y="1.5" width="44" height="44" rx="22" fill="url(#paint0_linear_119_5525)"/>
<rect x="1.5" y="1.5" width="44" height="44" rx="22" stroke="#B0C1D1" stroke-width="3"/>
<path d="M33.7344 20.3613C33.7344 21.2467 33.5739 22.0934 33.2529 22.9014C32.932 23.6982 32.5059 24.4508 31.9746 25.1592C31.4544 25.8564 30.8568 26.5039 30.1816 27.1016C29.5176 27.6882 28.8424 28.2194 28.1562 28.6953H33.4023L33.0039 35.6016L17.4648 35.0703V29.0273C18.0514 28.8281 18.6657 28.5902 19.3076 28.3135C19.9606 28.0257 20.597 27.6992 21.2168 27.334C21.8477 26.9688 22.4398 26.5592 22.9932 26.1055C23.5576 25.6517 24.0501 25.1592 24.4707 24.6279C24.9023 24.0856 25.2399 23.499 25.4834 22.8682C25.738 22.2373 25.8652 21.5566 25.8652 20.8262C25.8652 20.4056 25.7878 20.0348 25.6328 19.7139C25.4889 19.3929 25.2842 19.1273 25.0186 18.917C24.7529 18.6956 24.443 18.5352 24.0889 18.4355C23.7458 18.3249 23.375 18.2695 22.9766 18.2695C22.6445 18.2695 22.307 18.3083 21.9639 18.3857C21.6208 18.4521 21.2832 18.5518 20.9512 18.6846C20.6191 18.8174 20.3037 18.9834 20.0049 19.1826C19.7171 19.3708 19.457 19.5866 19.2246 19.8301L17.7637 13.3223C18.1732 12.9128 18.6436 12.5697 19.1748 12.293C19.7061 12.0163 20.265 11.7949 20.8516 11.6289C21.4382 11.4518 22.0358 11.3245 22.6445 11.2471C23.2533 11.1696 23.8509 11.1309 24.4375 11.1309C25.7435 11.1309 26.9609 11.3688 28.0898 11.8447C29.2188 12.3096 30.1982 12.957 31.0283 13.7871C31.8695 14.6061 32.528 15.5801 33.0039 16.709C33.4909 17.8379 33.7344 19.0553 33.7344 20.3613Z" fill="#B0C1D1"/>
<defs>
<linearGradient id="paint0_linear_119_5525" x1="9.17969" y1="10.1895" x2="36.4434" y2="38.8301" gradientUnits="userSpaceOnUse">
<stop offset="0.395" stop-color="#D6E4ED"/>
<stop offset="0.6" stop-color="#C5D2DC"/>
</linearGradient>
</defs>
</svg>
