<svg width="16" height="16" viewBox="0 0 16 16" fill="none" xmlns="http://www.w3.org/2000/svg">
<path d="M6.5417 10.1877C6.4859 9.97136 6.37316 9.77397 6.21521 9.61602C6.05726 9.45807 5.85987 9.34533 5.64358 9.28953L1.8092 8.30078C1.74379 8.28221 1.68621 8.24281 1.64521 8.18856C1.60421 8.1343 1.58203 8.06816 1.58203 8.00016C1.58203 7.93215 1.60421 7.86601 1.64521 7.81175C1.68621 7.7575 1.74379 7.7181 1.8092 7.69953L5.64358 6.71016C5.8598 6.65441 6.05714 6.54176 6.21508 6.38393C6.37302 6.2261 6.48581 6.02884 6.5417 5.81266L7.53045 1.97828C7.54883 1.9126 7.58819 1.85474 7.64253 1.81353C7.69686 1.77231 7.76319 1.75 7.83139 1.75C7.89959 1.75 7.96592 1.77231 8.02025 1.81353C8.07459 1.85474 8.11395 1.9126 8.13233 1.97828L9.12045 5.81266C9.17625 6.02895 9.28899 6.22634 9.44694 6.38429C9.60489 6.54224 9.80228 6.65498 10.0186 6.71078L13.853 7.69891C13.9189 7.71709 13.977 7.75641 14.0185 7.81083C14.0599 7.86525 14.0824 7.93176 14.0824 8.00016C14.0824 8.06855 14.0599 8.13507 14.0185 8.18948C13.977 8.2439 13.9189 8.28322 13.853 8.30141L10.0186 9.28953C9.80228 9.34533 9.60489 9.45807 9.44694 9.61602C9.28899 9.77397 9.17625 9.97136 9.12045 10.1877L8.1317 14.022C8.11332 14.0877 8.07396 14.1456 8.01963 14.1868C7.96529 14.228 7.89897 14.2503 7.83077 14.2503C7.76257 14.2503 7.69624 14.228 7.6419 14.1868C7.58757 14.1456 7.54821 14.0877 7.52983 14.022L6.5417 10.1877Z" stroke="white" stroke-width="2" stroke-linecap="round" stroke-linejoin="round"/>
</svg>
