<svg width="56" height="56" viewBox="0 0 56 56" fill="none" xmlns="http://www.w3.org/2000/svg">
<rect x="4" y="4" width="48" height="48" rx="24" fill="#FFF0C3"/>
<rect x="4" y="4" width="48" height="48" rx="24" stroke="#FFF4EE" stroke-width="8"/>
<path d="M22 30L23.45 27.1C23.617 26.7687 23.8728 26.4903 24.1889 26.296C24.505 26.1018 24.869 25.9993 25.24 26H36M36 26C36.3055 25.9995 36.6071 26.0689 36.8816 26.2031C37.1561 26.3372 37.3963 26.5325 37.5836 26.7739C37.7709 27.0152 37.9004 27.2963 37.9622 27.5956C38.024 27.8948 38.0164 28.2042 37.94 28.5L36.39 34.5C36.279 34.9299 36.0281 35.3106 35.6769 35.5822C35.3256 35.8538 34.894 36.0008 34.45 36H20C19.4696 36 18.9609 35.7893 18.5858 35.4142C18.2107 35.0391 18 34.5304 18 34V21C18 19.9 18.9 19 20 19H23.93C24.2594 19.0017 24.5833 19.0848 24.8729 19.2418C25.1625 19.3988 25.4088 19.6249 25.59 19.9L26.41 21.1C26.5912 21.3751 26.8375 21.6012 27.1271 21.7582C27.4167 21.9152 27.7406 21.9983 28.07 22H34C34.5304 22 35.0391 22.2107 35.4142 22.5858C35.7893 22.9609 36 23.4696 36 24V26Z" stroke="#CFAA12" stroke-opacity="0.9" stroke-width="2" stroke-linecap="round" stroke-linejoin="round"/>
<path d="M30 32C30.5523 32 31 31.5523 31 31C31 30.4477 30.5523 30 30 30C29.4477 30 29 30.4477 29 31C29 31.5523 29.4477 32 30 32Z" stroke="#CFAA12" stroke-opacity="0.9" stroke-width="2" stroke-linecap="round" stroke-linejoin="round"/>
</svg>
