<svg width="57" height="56" viewBox="0 0 57 56" fill="none" xmlns="http://www.w3.org/2000/svg">
<rect x="4.25" y="4" width="48" height="48" rx="24" fill="#FFD9C3"/>
<rect x="4.25" y="4" width="48" height="48" rx="24" stroke="#FFF4EE" stroke-width="8"/>
<path d="M18.312 28.348C18.2287 28.1235 18.2287 27.8765 18.312 27.652C19.1237 25.6838 20.5015 24.001 22.2708 22.8169C24.04 21.6328 26.1211 21.0006 28.25 21.0006C30.379 21.0006 32.46 21.6328 34.2292 22.8169C35.9985 24.001 37.3763 25.6838 38.188 27.652C38.2714 27.8765 38.2714 28.1235 38.188 28.348C37.3763 30.3161 35.9985 31.999 34.2292 33.1831C32.46 34.3672 30.379 34.9994 28.25 34.9994C26.1211 34.9994 24.04 34.3672 22.2708 33.1831C20.5015 31.999 19.1237 30.3161 18.312 28.348Z" stroke="#FD5C02" stroke-width="2" stroke-linecap="round" stroke-linejoin="round"/>
<path d="M28.25 31C29.9069 31 31.25 29.6569 31.25 28C31.25 26.3431 29.9069 25 28.25 25C26.5931 25 25.25 26.3431 25.25 28C25.25 29.6569 26.5931 31 28.25 31Z" stroke="#FD5C02" stroke-width="2" stroke-linecap="round" stroke-linejoin="round"/>
</svg>
