<svg width="57" height="56" viewBox="0 0 57 56" fill="none" xmlns="http://www.w3.org/2000/svg">
<rect x="4.25" y="4" width="48" height="48" rx="24" fill="#FFD9C3"/>
<rect x="4.25" y="4" width="48" height="48" rx="24" stroke="#FFF4EE" stroke-width="8"/>
<path d="M28 24C29.6569 24 31 22.6569 31 21C31 19.3431 29.6569 18 28 18C26.3431 18 25 19.3431 25 21C25 22.6569 26.3431 24 28 24Z" stroke="#E61A1A" stroke-width="2" stroke-linecap="round" stroke-linejoin="round"/>
<path d="M22.5 24C22.0673 24.0045 21.6476 24.1492 21.3042 24.4125C20.9607 24.6757 20.7118 25.0433 20.595 25.46L18.1 34.5C18.0244 34.7926 18.0161 35.0985 18.0757 35.3947C18.1353 35.691 18.2612 35.9699 18.4441 36.2105C18.6269 36.4511 18.8619 36.6471 19.1314 36.7839C19.4009 36.9206 19.6979 36.9945 20 37H36C36.3087 36.9999 36.6131 36.9283 36.8895 36.7909C37.1659 36.6535 37.4068 36.454 37.5932 36.208C37.7797 35.962 37.9066 35.6762 37.9642 35.3729C38.0218 35.0697 38.0083 34.7572 37.925 34.46L35.4 25.5C35.2899 25.0734 35.042 24.6951 34.6948 24.4239C34.3476 24.1526 33.9206 24.0036 33.48 24H22.5Z" stroke="#E61A1A" stroke-width="2" stroke-linecap="round" stroke-linejoin="round"/>
</svg>
