<svg width="56" height="56" viewBox="0 0 56 56" fill="none" xmlns="http://www.w3.org/2000/svg">
<rect x="4" y="4" width="48" height="48" rx="24" fill="#FFF0C3"/>
<rect x="4" y="4" width="48" height="48" rx="24" stroke="#FFF4EE" stroke-width="8"/>
<path d="M34 37C34 34.8783 33.1571 32.8434 31.6569 31.3431C30.1566 29.8429 28.1217 29 26 29C23.8783 29 21.8434 29.8429 20.3431 31.3431C18.8429 32.8434 18 34.8783 18 37" stroke="#AE9A30" stroke-width="2" stroke-linecap="round" stroke-linejoin="round"/>
<path d="M26 29C28.7614 29 31 26.7614 31 24C31 21.2386 28.7614 19 26 19C23.2386 19 21 21.2386 21 24C21 26.7614 23.2386 29 26 29Z" stroke="#AE9A30" stroke-width="2" stroke-linecap="round" stroke-linejoin="round"/>
<path d="M37.9998 36C37.9998 32.63 35.9998 29.5 33.9998 28C34.6572 27.5067 35.1829 26.859 35.5304 26.1142C35.8778 25.3694 36.0363 24.5504 35.9918 23.7298C35.9473 22.9091 35.7012 22.112 35.2753 21.4092C34.8493 20.7063 34.2567 20.1192 33.5498 19.7" stroke="#AE9A30" stroke-width="2" stroke-linecap="round" stroke-linejoin="round"/>
</svg>
