<svg width="56" height="56" viewBox="0 0 56 56" fill="none" xmlns="http://www.w3.org/2000/svg">
<rect x="4" y="4" width="48" height="48" rx="24" fill="#FFF0C3"/>
<rect x="4" y="4" width="48" height="48" rx="24" stroke="#FFF4EE" stroke-width="8"/>
<path d="M19.85 24.62C19.7041 23.9625 19.7265 23.2788 19.9152 22.6323C20.1039 21.9858 20.4528 21.3974 20.9295 20.9217C21.4062 20.446 21.9953 20.0983 22.6422 19.911C23.2891 19.7236 23.9728 19.7026 24.63 19.85C24.9917 19.2843 25.49 18.8187 26.079 18.4963C26.6679 18.1738 27.3286 18.0048 28 18.0048C28.6715 18.0048 29.3321 18.1738 29.9211 18.4963C30.51 18.8187 31.0083 19.2843 31.37 19.85C32.0282 19.702 32.7131 19.7229 33.361 19.9107C34.0089 20.0985 34.5988 20.4471 35.0759 20.9241C35.5529 21.4011 35.9015 21.991 36.0893 22.639C36.2771 23.2869 36.298 23.9718 36.15 24.63C36.7157 24.9917 37.1812 25.49 37.5037 26.0789C37.8262 26.6679 37.9952 27.3285 37.9952 28C37.9952 28.6714 37.8262 29.3321 37.5037 29.921C37.1812 30.51 36.7157 31.0083 36.15 31.37C36.2973 32.0271 36.2764 32.7109 36.089 33.3578C35.9017 34.0047 35.554 34.5938 35.0783 35.0705C34.6026 35.5472 34.0142 35.8961 33.3677 36.0848C32.7212 36.2735 32.0375 36.2959 31.38 36.15C31.0188 36.7178 30.5201 37.1854 29.9301 37.5093C29.3402 37.8332 28.678 38.003 28.005 38.003C27.332 38.003 26.6698 37.8332 26.0799 37.5093C25.4899 37.1854 24.9912 36.7178 24.63 36.15C23.9728 36.2973 23.2891 36.2763 22.6422 36.089C21.9953 35.9016 21.4062 35.554 20.9295 35.0783C20.4528 34.6025 20.1039 34.0141 19.9152 33.3676C19.7265 32.7211 19.7041 32.0374 19.85 31.38C19.28 31.0192 18.8104 30.5201 18.4851 29.9292C18.1597 29.3382 17.9891 28.6746 17.9891 28C17.9891 27.3254 18.1597 26.6617 18.4851 26.0708C18.8104 25.4798 19.28 24.9807 19.85 24.62Z" stroke="#E0BC33" stroke-width="2" stroke-linecap="round" stroke-linejoin="round"/>
<path d="M32 24H26C25.4696 24 24.9609 24.2107 24.5858 24.5858C24.2107 24.9609 24 25.4696 24 26C24 26.5304 24.2107 27.0391 24.5858 27.4142C24.9609 27.7893 25.4696 28 26 28H30C30.5304 28 31.0391 28.2107 31.4142 28.5858C31.7893 28.9609 32 29.4696 32 30C32 30.5304 31.7893 31.0391 31.4142 31.4142C31.0391 31.7893 30.5304 32 30 32H24" stroke="#E0BC33" stroke-width="2" stroke-linecap="round" stroke-linejoin="round"/>
<path d="M28 34V22" stroke="#E0BC33" stroke-width="2" stroke-linecap="round" stroke-linejoin="round"/>
</svg>
