<svg width="57" height="56" viewBox="0 0 57 56" fill="none" xmlns="http://www.w3.org/2000/svg">
<rect x="4.75" y="4" width="48" height="48" rx="24" fill="#C1F8FF"/>
<rect x="4.75" y="4" width="48" height="48" rx="24" stroke="#DFFBFF" stroke-width="8"/>
<path d="M24.9835 36C26.8921 36.9791 29.0876 37.2443 31.1744 36.7478C33.2612 36.2514 35.102 35.0259 36.3652 33.2922C37.6284 31.5586 38.2309 29.4308 38.0641 27.2922C37.8972 25.1537 36.9721 23.145 35.4553 21.6282C33.9385 20.1115 31.9299 19.1863 29.7913 19.0195C27.6528 18.8526 25.525 19.4551 23.7913 20.7183C22.0577 21.9815 20.8322 23.8224 20.3357 25.9092C19.8393 27.996 20.1044 30.1915 21.0835 32.1L19.0835 38L24.9835 36Z" stroke="#20D5EC" stroke-width="2" stroke-linecap="round" stroke-linejoin="round"/>
</svg>
