<svg width="17" height="16" viewBox="0 0 17 16" fill="none" xmlns="http://www.w3.org/2000/svg">
<path d="M1.70793 8.232C1.65237 8.08232 1.65237 7.91767 1.70793 7.768C2.24906 6.4559 3.16761 5.33402 4.34711 4.5446C5.52661 3.75517 6.91396 3.33374 8.33326 3.33374C9.75257 3.33374 11.1399 3.75517 12.3194 4.5446C13.4989 5.33402 14.4175 6.4559 14.9586 7.768C15.0142 7.91767 15.0142 8.08232 14.9586 8.232C14.4175 9.54409 13.4989 10.666 12.3194 11.4554C11.1399 12.2448 9.75257 12.6663 8.33326 12.6663C6.91396 12.6663 5.52661 12.2448 4.34711 11.4554C3.16761 10.666 2.24906 9.54409 1.70793 8.232Z" stroke="black" stroke-linecap="round" stroke-linejoin="round"/>
<path d="M8.33325 10C9.43782 10 10.3333 9.10457 10.3333 8C10.3333 6.89543 9.43782 6 8.33325 6C7.22868 6 6.33325 6.89543 6.33325 8C6.33325 9.10457 7.22868 10 8.33325 10Z" stroke="black" stroke-linecap="round" stroke-linejoin="round"/>
</svg>
